<?xml version="1.0" encoding="UTF-8"?>
<svg id="Layer_2" data-name="Layer 2" xmlns="http://www.w3.org/2000/svg" viewBox="0 0 218.17 196.44">
  <defs>
    <style>
      .cls-1 {
        fill: #3f7d3b;
      }

      .cls-2 {
        fill: none;
        stroke: #4f564f;
        stroke-miterlimit: 10;
        stroke-width: 8px;
      }

      .cls-3 {
        fill: #1e5d2f;
      }

      .cls-4 {
        fill: #231f20;
      }
    </style>
  </defs>
  <g id="Layer_1-2" data-name="Layer 1">
    <g>
      <g>
        <polyline class="cls-2" points="35.58 122.1 35.58 45.6 100.58 4.6 168.58 39.6 168.58 118.1 78.08 118.24"/>
        <rect class="cls-3" x="90.96" y="51.1" width="23" height="23"/>
        <rect class="cls-1" x="116.96" y="51.1" width="9" height="9"/>
      </g>
      <g>
        <path class="cls-4" d="m17.86,162.88H6.44v19.67H0v-48.62h16.09c5.48,0,9.69,1.25,12.64,3.74,2.95,2.49,4.42,6.12,4.42,10.89,0,3.03-.82,5.67-2.45,7.91-1.64,2.25-3.91,3.93-6.83,5.04l11.42,20.64v.4h-6.88l-10.55-19.67Zm-11.42-5.24h9.85c3.18,0,5.71-.83,7.6-2.48,1.88-1.65,2.82-3.86,2.82-6.62,0-3.01-.9-5.32-2.69-6.92-1.79-1.61-4.38-2.42-7.76-2.44H6.44v18.47Z"/>
        <path class="cls-4" d="m64.09,178.98c-2.4,2.83-5.93,4.24-10.58,4.24-3.85,0-6.78-1.12-8.8-3.36-2.02-2.24-3.03-5.55-3.06-9.93v-23.51h6.18v23.34c0,5.48,2.23,8.21,6.68,8.21,4.72,0,7.86-1.76,9.42-5.28v-26.28h6.18v36.13h-5.88l-.13-3.57Z"/>
        <path class="cls-4" d="m85.91,177.51h21.14v5.04h-28.68v-4.54l19.94-26.48h-19.63v-5.11h27.38v4.37l-20.13,26.71Z"/>
        <path class="cls-4" d="m145.13,164.89c0,5.5-1.26,9.93-3.77,13.29s-5.92,5.04-10.22,5.04-7.84-1.39-10.35-4.17v17.4h-6.18v-50.02h5.64l.3,4.01c2.52-3.12,6.01-4.67,10.49-4.67s7.77,1.64,10.3,4.91c2.53,3.27,3.79,7.83,3.79,13.66v.57Zm-6.18-.7c0-4.07-.87-7.29-2.6-9.65s-4.12-3.54-7.15-3.54c-3.74,0-6.54,1.66-8.42,4.98v17.26c1.85,3.29,4.67,4.94,8.48,4.94,2.96,0,5.31-1.17,7.06-3.52,1.75-2.35,2.62-5.84,2.62-10.47Z"/>
        <path class="cls-4" d="m171.06,152.12c-.93-.16-1.95-.23-3.04-.23-4.05,0-6.8,1.72-8.25,5.18v25.64h-6.18v-36.13h6.01l.1,4.17c2.03-3.23,4.9-4.84,8.62-4.84,1.2,0,2.12.16,2.74.47v5.74Z"/>
        <path class="cls-3" d="m207.55,156.85l-9.52-9.52c-3.57-3.57-9.35-3.57-12.91,0l-9.52,9.52c-3.57,3.57-3.57,9.35,0,12.91l9.52,9.52c3.57,3.57,9.35,3.57,12.91,0l9.52-9.52c3.57-3.57,3.57-9.35,0-12.91Zm-15.98,14.13c-4.24,0-7.68-3.44-7.68-7.68s3.44-7.68,7.68-7.68,7.68,3.44,7.68,7.68-3.44,7.68-7.68,7.68Z"/>
        <path class="cls-3" d="m216.41,138.53l-2.38-2.38c-2.34-2.34-6.13-2.34-8.47,0l-2.38,2.38c-2.34,2.34-2.34,6.13,0,8.47l2.38,2.37c2.34,2.34,6.13,2.34,8.47,0l2.38-2.37c2.34-2.34,2.34-6.13,0-8.47Zm-6.61,7.35c-1.72,0-3.12-1.4-3.12-3.12s1.4-3.12,3.12-3.12,3.12,1.4,3.12,3.12-1.4,3.12-3.12,3.12Z"/>
      </g>
    </g>
  </g>
</svg>